# xmcd CD database file
# Copyright (C) 1997 Ti Kan
# 
# Track frame offsets:
#     150
#     10372
#     19330
#     30270
#     41887
#     51860
#     65045
#     76197
#     87045
#     97625
#     109230
#     119450
#     127952
#     137125
#     147560
#     159180
#     170062
#     181745
# 
# Disc length: 2583 seconds
# 
# Revision: 1
# Processed by: cddbd v1.4b41PL1 Copyright (c) Steve Scherf et al.
# Submitted via: DiscPlay 4.0.3
# 
DISCID=ea0a1512
DTITLE=Chet Atkins - Pickin' On Country
DYEAR=1900
DGENRE=
TTITLE0=Country Gentleman
TTITLE1=Chinatown, My Chinatown
TTITLE2=Walk Don't Run
TTITLE3=Black Mountain Rag
TTITLE4=Trambone
TTITLE5=El Condor Pasa
TTITLE6=Galloping On The Guitar
TTITLE7=Steeplechase Lane
TTITLE8=Blue Steel Blues
TTITLE9=Music To Watch Girls By
TTITLE10=Main Street Breakdown
TTITLE11=Oh! By Jingo! Oh! By Gee! Youe The Only Girl For Me
TTITLE12=Freight Train
TTITLE13=The Enchanted Sea
TTITLE14=The Masterpiece
TTITLE15=Blue Angel
TTITLE16=Canned Heat
TTITLE17=Knee Action
EXTD=
EXTT0=
EXTT1=
EXTT2=
EXTT3=
EXTT4=
EXTT5=
EXTT6=
EXTT7=
EXTT8=
EXTT9=
EXTT10=
EXTT11=
EXTT12=
EXTT13=
EXTT14=
EXTT15=
EXTT16=
EXTT17=
PLAYORDER=
